<svg xmlns="http://www.w3.org/2000/svg" viewBox="0 0 160 220"><defs>
 <linearGradient id="gcloth" x1="0" y1="0" x2="1" y2="1"><stop stop-color="#6f835b"/><stop offset=".48" stop-color="#526646"/><stop offset="1" stop-color="#344737"/></linearGradient>
 <linearGradient id="gleather" x1="0" y1="0" x2="1" y2="1"><stop stop-color="#a27a50"/><stop offset=".55" stop-color="#745136"/><stop offset="1" stop-color="#4b3529"/></linearGradient>
 <linearGradient id="gskin" x1="0" y1="0" x2="1" y2="1"><stop stop-color="#e0b386"/><stop offset=".55" stop-color="#c98f68"/><stop offset="1" stop-color="#9f674b"/></linearGradient>
 <linearGradient id="gsteel" x1="0" y1="0" x2="1" y2="1"><stop stop-color="#f2ead6"/><stop offset=".28" stop-color="#c8d0c8"/><stop offset=".55" stop-color="#7c8986"/><stop offset=".8" stop-color="#cfd3c6"/><stop offset="1" stop-color="#626c6c"/></linearGradient>
 <linearGradient id="gwolf" x1="0" y1="0" x2="1" y2="1"><stop stop-color="#777a6f"/><stop offset=".48" stop-color="#555c54"/><stop offset="1" stop-color="#333a35"/></linearGradient>
 <linearGradient id="gboar" x1="0" y1="0" x2="1" y2="1"><stop stop-color="#98694e"/><stop offset=".52" stop-color="#74503d"/><stop offset="1" stop-color="#49352e"/></linearGradient>
 <linearGradient id="gboss" x1="0" y1="0" x2="1" y2="1"><stop stop-color="#9f5f45"/><stop offset=".52" stop-color="#713f35"/><stop offset="1" stop-color="#3e2d2b"/></linearGradient>
 <filter id="soft" x="-10%" y="-10%" width="120%" height="120%"><feGaussianBlur stdDeviation=".35"/></filter>
 </defs><g stroke="#382f29" stroke-width="2" stroke-linecap="round" stroke-linejoin="round">
<!-- rear cape and grounded asymmetrical stance -->
<path d="M55 76 Q73 65 94 72 L103 118 Q93 139 64 137 L48 111Z" fill="#314738" opacity=".92"/>
<!-- far leg --> <path d="M76 130 Q88 131 96 126 L106 166 L125 188 L115 198 L92 174 L84 147Z" fill="#4b5147"/>
<!-- near leg --> <path d="M61 128 Q70 132 79 131 L73 169 L55 193 L43 186 L58 160Z" fill="#51564a"/>
<!-- boots --> <path d="M42 184 Q52 181 62 188 L57 199 L37 199 Q34 192 42 184Z" fill="#3b3028"/><path d="M111 188 Q121 183 129 189 L128 198 Q117 203 107 196Z" fill="#3b3028"/>
<!-- tunic --> <path d="M57 77 Q74 69 93 74 L102 122 Q88 136 64 127 L50 99Z" fill="url(#gcloth)"/>
<!-- layered leather --> <path d="M63 81 L83 74 L96 82 L94 117 L75 126 L60 111Z" fill="url(#gleather)"/>
<path d="M66 84 L91 113 M91 80 L65 115" stroke="#c2a474" stroke-width="2" fill="none" opacity=".7"/>
<path d="M61 113 Q77 120 96 113" stroke="#342a25" stroke-width="4" fill="none"/>
<rect x="76" y="111" width="8" height="7" rx="1" fill="#c3944f" stroke="#594329" stroke-width="1.2"/>
<!-- neck/head much smaller --> <path d="M72 72 L73 61 L85 60 L88 72" fill="url(#gskin)"/>
<path d="M68 42 Q69 26 82 23 Q97 24 99 41 Q98 56 88 64 Q75 63 69 53Z" fill="url(#gskin)"/>
<!-- hair --> <path d="M67 43 Q65 29 76 21 Q89 14 99 25 Q104 32 100 44 L96 34 L90 38 L85 30 L78 36 L72 32 L70 46Z" fill="#49362d"/>
<path d="M73 25 L70 18 M80 20 L81 13 M88 19 L92 12 M95 23 L102 18" stroke="#604133" stroke-width="2.6"/>
<!-- eyes/nose/jaw --> <path d="M78 44 l2.5 -.5 M89 43 l2.5 .5" stroke="#382b24" stroke-width="1.3"/><path d="M85 46 l-1 5 3 1" fill="none" stroke="#99674f" stroke-width="1"/><path d="M80 56 Q85 58 90 54" fill="none" stroke="#8d5d49" stroke-width="1.1"/>
<!-- collar, pauldrons --> <path d="M70 70 Q80 76 90 69" fill="none" stroke="#a6b38b" stroke-width="3"/><path d="M52 83 Q56 75 66 76 L64 88 Q57 91 51 87Z" fill="#6f765f"/><path d="M94 76 Q103 74 108 83 L105 89 Q100 89 95 86Z" fill="#6f765f"/>
<!-- cloth folds --> <path d="M70 94 L68 108 M85 90 L88 108" stroke="#9aab80" stroke-width="1.3" opacity=".38"/>
<path d="M95 87 Q111 86 126 80 L130 88 Q113 97 95 98Z" fill="url(#gcloth)"/><path d="M125 79 Q131 78 136 83 L135 91 Q128 93 124 88Z" fill="url(#gskin)"/>
<path d="M52 87 Q45 99 43 113 L52 116 Q57 104 65 97Z" fill="url(#gcloth)"/><path d="M42 111 Q47 110 52 116 L49 123 Q42 122 38 117Z" fill="url(#gskin)"/>
<path d="M136 54 Q156 82 139 121" fill="none" stroke="#8e663f" stroke-width="3.6"/><path d="M136 54 L139 121" fill="none" stroke="#dfd0ae" stroke-width="1.2"/><path d="M137 88 L100 90" fill="none" stroke="#d6c69e" stroke-width="1.4"/><path d="M100 90 L107 87 L107 93Z" fill="#8a7452" stroke-width="1.2"/>
<path d="M51 82 L43 122" stroke="#59412f" stroke-width="5"/><path d="M45 82 L42 68 M49 82 L48 67 M53 84 L55 70" stroke="#d0b478" stroke-width="1.8"/></g></svg>