<svg xmlns="http://www.w3.org/2000/svg" viewBox="0 0 120 150"><defs><linearGradient id="tunic" x1="43" y1="52" x2="76" y2="103" gradientUnits="userSpaceOnUse"><stop stop-color="#647f59"/><stop offset="1" stop-color="#344b3b"/></linearGradient><linearGradient id="leather" x1="52" y1="58" x2="76" y2="96" gradientUnits="userSpaceOnUse"><stop stop-color="#87674a"/><stop offset="1" stop-color="#4a382e"/></linearGradient></defs><g stroke-linecap="round" stroke-linejoin="round"><path d="M45 57 37 71 35 96 44 113 55 103 54 68Z" fill="#314637" stroke="#27382e" stroke-width="2.5"/><path d="M50 55 61 50 73 55 79 72 72 97 56 101 44 82Z" fill="url(#tunic)" stroke="#283a30" stroke-width="3"/><path d="M53 61 70 57 77 75 69 94 57 92 48 77Z" fill="url(#leather)" stroke="#3d3028" stroke-width="2.5"/><path d="M52 64 73 88M72 62 54 90" stroke="#c0a06d" stroke-width="2.4" opacity=".72"/><path d="M51 84 73 83" stroke="#332a25" stroke-width="3.5"/><rect x="60" y="80" width="6" height="6" rx="1" fill="#bd9154"/><path d="M53 95 44 116 34 129" stroke="#55443a" stroke-width="9"/><path d="M68 95 79 114 94 124" stroke="#5d493d" stroke-width="10"/><path d="M29 131 40 130M90 126l12 2" stroke="#292725" stroke-width="7"/><path d="M50 64 38 72 31 84" stroke="#6d845d" stroke-width="8"/><path d="M72 64 84 71 92 79" stroke="#6d845d" stroke-width="8"/><path d="M29 84 35 90M90 78l7 5" stroke="#523b30" stroke-width="7"/><ellipse cx="61" cy="40" rx="8" ry="10" fill="#d0a67a" stroke="#573f31" stroke-width="2.3"/><path d="M52 39c-1-11 4-18 10-18 8 0 13 6 12 16-4-4-8-6-12-5l-4 4-2-4-4 5Z" fill="#493329"/><path d="M54 28 49 34M58 23l-1-7M64 22l4-8M69 25l7-6M73 31l8-3" stroke="#5a3929" stroke-width="3.5"/><path d="M56 41h1.5M65 41h1.5" stroke="#292620" stroke-width="1.8"/><path d="M58 47c2.5 1 4.5 1 6.5 0" stroke="#9a7056" stroke-width="1.2"/><path d="M95 82 105 73" stroke="#815d42" stroke-width="4.5"/><path d="M103 74 114 58" stroke="#ddd5bd" stroke-width="4"/><path d="M113 60 118 55" stroke="#f2ead6" stroke-width="2"/><path d="M99 72 106 79" stroke="#70503a" stroke-width="3"/><path d="M43 57 37 62 42 69 49 64Z" fill="#496b4c" stroke="#2a4032" stroke-width="2"/></g></svg>