<svg xmlns="http://www.w3.org/2000/svg" viewBox="0 0 512 512">
<defs><linearGradient id="wood" x1="0" y1="0" x2="1" y2="1"><stop stop-color="#a87446"/><stop offset=".6" stop-color="#765033"/><stop offset="1" stop-color="#4d3627"/></linearGradient><radialGradient id="glow"><stop stop-color="#ffd88b" stop-opacity=".9"/><stop offset=".55" stop-color="#e9a447" stop-opacity=".38"/><stop offset="1" stop-color="#e9a447" stop-opacity="0"/></radialGradient><filter id="s"><feGaussianBlur stdDeviation="6"/></filter></defs>
<ellipse cx="259" cy="432" rx="172" ry="25" fill="#2c2b25" opacity=".17" filter="url(#s)"/>
<g fill="url(#wood)" stroke="#49372a" stroke-width="7" stroke-linejoin="round"><path d="M72 385 82 233 111 215 127 388Z"/><path d="M197 400 207 249 237 230 252 405Z"/><path d="M80 284 218 259 224 294 84 320Z"/><path d="M86 343 224 320 229 353 91 378Z"/><path d="M304 416 319 146 351 126 363 419Z"/><path d="M334 178 425 198 418 233 337 214Z"/></g>
<path d="M362 222q46 6 72 20l-19 100q-53 15-104-4l13-101q17-12 38-15Z" fill="#805936" stroke="#49372a" stroke-width="7"/><path d="M323 245q43 16 93 5" stroke="#b38352" stroke-width="5" opacity=".6"/>
<path d="M404 190q22-34 47-19v62" fill="none" stroke="#3f4140" stroke-width="9" stroke-linecap="round"/><circle cx="449" cy="257" r="55" fill="url(#glow)"/>
<g transform="translate(422 217)" stroke="#434746" stroke-width="6" stroke-linejoin="round"><path d="M9 10h38l7 70H2Z" fill="#bd8b4b"/><path d="M16 22h24v42H16Z" fill="#ffd178"/><path d="M12 8q4-19 16-19T44 8" fill="none"/><path d="M4 39h48" fill="none"/></g>
<path d="M286 420q18-31 38-42 20 12 33 43Z" fill="#7d8179" stroke="#555d59" stroke-width="6"/>
</svg>